<?xml version="1.0" standalone="no"?>
<!DOCTYPE svg PUBLIC "-//W3C//DTD SVG 20010904//EN"
 "http://www.w3.org/TR/2001/REC-SVG-20010904/DTD/svg10.dtd">
<svg version="1.0" xmlns="http://www.w3.org/2000/svg"
 width="700.000000pt" height="700.000000pt" viewBox="0 0 700.000000 700.000000"
 preserveAspectRatio="xMidYMid meet">
<metadata>
Created by potrace 1.14, written by Peter Selinger 2001-2017
</metadata>
<g transform="translate(0.000000,700.000000) scale(0.100000,-0.100000)"
fill="#000000" stroke="none">
<path d="M3258 6986 c-26 -7 -49 -11 -51 -10 -7 7 -147 -53 -212 -91 -80 -46
-194 -154 -248 -235 -154 -233 -174 -537 -51 -783 90 -180 234 -314 414 -385
264 -103 553 -62 780 113 141 109 259 303 287 475 14 83 8 261 -11 334 -51
194 -175 365 -344 474 -61 39 -194 94 -262 107 -66 13 -254 13 -302 1z"/>
<path d="M1788 4865 c-2 -1 -29 -5 -61 -9 -159 -16 -343 -76 -498 -162 -590
-326 -854 -1043 -616 -1675 85 -226 249 -452 427 -587 19 -15 37 -29 40 -32
14 -16 174 -111 233 -138 262 -123 599 -160 874 -96 37 9 75 17 83 19 8 2 49
15 90 30 319 116 593 360 749 667 63 124 103 238 127 363 28 150 26 376 -5
535 -32 158 -127 375 -226 515 -115 162 -324 339 -510 431 -78 39 -239 97
-300 108 -17 3 -39 8 -50 10 -78 15 -346 31 -357 21z"/>
<path d="M5592 4171 c-329 -81 -550 -380 -529 -716 10 -151 59 -275 154 -390
69 -84 139 -139 238 -186 104 -50 195 -68 315 -64 114 4 131 8 229 45 394 153
556 625 341 991 -37 63 -110 146 -173 197 -143 116 -389 168 -575 123z"/>
<path d="M3358 1575 c-2 -1 -30 -5 -63 -8 -33 -3 -89 -16 -125 -27 -214 -72
-376 -210 -473 -405 -189 -380 -35 -849 343 -1044 41 -21 91 -44 111 -50 36
-12 47 -14 129 -31 67 -13 235 -6 315 15 294 75 517 309 579 609 14 68 15 250
1 310 -58 263 -243 482 -486 576 -42 16 -87 31 -100 34 -13 2 -40 7 -59 11
-35 6 -167 14 -172 10z"/>
</g>
</svg>
